<svg width="18" height="17" viewBox="0 0 18 17" fill="none" xmlns="http://www.w3.org/2000/svg">
<g clip-path="url(#clip0_637_929)">
<path d="M13.061 1C12.2637 1.01245 11.4838 1.23596 10.8 1.64795C10.1163 2.05993 9.55289 2.64581 9.16675 3.34641C8.78061 2.64581 8.21721 2.05993 7.53345 1.64795C6.84969 1.23596 6.06978 1.01245 5.27249 1C4.0015 1.05545 2.80402 1.6138 1.94168 2.55306C1.07933 3.49233 0.622205 4.73615 0.670176 6.01279C0.670176 9.24587 4.05889 12.7769 6.901 15.1709C7.53556 15.7064 8.33787 16 9.16675 16C9.99562 16 10.7979 15.7064 11.4325 15.1709C14.2746 12.7769 17.6633 9.24587 17.6633 6.01279C17.7113 4.73615 17.2542 3.49233 16.3918 2.55306C15.5295 1.6138 14.332 1.05545 13.061 1Z" fill="white"/>
</g>
<defs>
<clipPath id="clip0_637_929">
<rect width="17" height="17" fill="white" transform="translate(0.666748)"/>
</clipPath>
</defs>
</svg>
