<svg width="20" height="19" viewBox="0 0 20 19" fill="none" xmlns="http://www.w3.org/2000/svg">
<path d="M14.5832 0.597107C13.6448 0.611703 12.7269 0.873651 11.9222 1.3565C11.1174 1.83935 10.4544 2.526 9.99988 3.34711C9.54542 2.526 8.88233 1.83935 8.07758 1.3565C7.27283 0.873651 6.35493 0.611703 5.41655 0.597107C3.92067 0.662099 2.51131 1.31649 1.49637 2.4173C0.481433 3.51812 -0.0565749 4.97588 -0.000116138 6.47211C-0.000116138 10.2613 3.98822 14.3996 7.33322 17.2054C8.08007 17.833 9.02435 18.1771 9.99988 18.1771C10.9754 18.1771 11.9197 17.833 12.6665 17.2054C16.0115 14.3996 19.9999 10.2613 19.9999 6.47211C20.0563 4.97588 19.5183 3.51812 18.5034 2.4173C17.4885 1.31649 16.0791 0.662099 14.5832 0.597107Z" fill="url(#paint0_linear_637_553)"/>
<defs>
<linearGradient id="paint0_linear_637_553" x1="9.99988" y1="0.597107" x2="9.99988" y2="18.1771" gradientUnits="userSpaceOnUse">
<stop stop-color="#FFA992"/>
<stop offset="1" stop-color="#FD0D92"/>
</linearGradient>
</defs>
</svg>
