<svg width="18" height="17" viewBox="0 0 18 17" fill="none" xmlns="http://www.w3.org/2000/svg">
<path d="M13.9945 0H4.0778C3.13884 0.00112473 2.23865 0.374625 1.57471 1.03857C0.910758 1.70252 0.537258 2.6027 0.536133 3.54167V13.4583C0.537258 14.3973 0.910758 15.2975 1.57471 15.9614C2.23865 16.6254 3.13884 16.9989 4.0778 17H13.9945C14.9334 16.9989 15.8336 16.6254 16.4976 15.9614C17.1615 15.2975 17.535 14.3973 17.5361 13.4583V3.54167C17.535 2.6027 17.1615 1.70252 16.4976 1.03857C15.8336 0.374625 14.9334 0.00112473 13.9945 0V0ZM14.7028 7.79167H16.1195V9.20833H14.7028V7.79167ZM14.7028 6.375V4.95833H16.1195V6.375H14.7028ZM3.36947 9.20833H1.9528V7.79167H3.36947V9.20833ZM4.75001 9.20833V7.79167H13.25V9.20833H4.75001ZM3.36947 6.375H1.9528V4.95833H3.36947V6.375ZM1.9528 10.625H3.36947V12.0417H1.9528V10.625ZM14.7028 10.625H16.1195V12.0417H14.7028V10.625ZM16.1195 3.54167H14.7028V1.547C15.1157 1.69298 15.4734 1.96296 15.727 2.32C15.9806 2.67705 16.1177 3.10373 16.1195 3.54167ZM3.36947 1.547V3.54167H1.9528C1.95461 3.10373 2.09169 2.67705 2.34528 2.32C2.59886 1.96296 2.95657 1.69298 3.36947 1.547ZM1.9528 13.4583H3.36947V15.453C2.95657 15.307 2.59886 15.037 2.34528 14.68C2.09169 14.3229 1.95461 13.8963 1.9528 13.4583ZM14.7028 15.453V13.4583H16.1195C16.1177 13.8963 15.9806 14.3229 15.727 14.68C15.4734 15.037 15.1157 15.307 14.7028 15.453Z" fill="white"/>
</svg>
