<svg width="18" height="17" viewBox="0 0 18 17" fill="none" xmlns="http://www.w3.org/2000/svg">
<g clip-path="url(#clip0_566_1865)">
<path d="M1.63835 12.75C2.22425 13.7669 3.52359 14.1162 4.54047 13.5303C4.54116 13.5299 4.54183 13.5295 4.54253 13.5291L4.85772 13.3471C5.45272 13.8562 6.13664 14.2509 6.87504 14.5116V14.875C6.87504 16.0486 7.82645 17 9.00004 17C10.1736 17 11.125 16.0486 11.125 14.875V14.5116C11.8635 14.2505 12.5475 13.8553 13.1424 13.3457L13.459 13.5284C14.4761 14.1152 15.7764 13.7664 16.3632 12.7493C16.95 11.7322 16.6011 10.4319 15.584 9.84509L15.2695 9.66377C15.4111 8.89342 15.4111 8.10372 15.2695 7.33334L15.584 7.15202C16.6011 6.56522 16.95 5.26499 16.3632 4.24784C15.7764 3.23073 14.4761 2.88187 13.459 3.46866L13.1438 3.65072C12.5482 3.14228 11.8638 2.74822 11.125 2.48837V2.125C11.125 0.951402 10.1736 0 9.00004 0C7.82645 0 6.87504 0.951402 6.87504 2.125V2.48837C6.13654 2.74945 5.45259 3.1447 4.85772 3.6543L4.5411 3.47086C3.52395 2.88402 2.22372 3.23289 1.63692 4.25C1.05012 5.26711 1.39895 6.56738 2.4161 7.15418L2.7306 7.3355C2.58902 8.10585 2.58902 8.89555 2.7306 9.66593L2.4161 9.84725C1.40178 10.4356 1.05407 11.7333 1.63835 12.75ZM9.00004 5.66668C10.5648 5.66668 11.8334 6.9352 11.8334 8.5C11.8334 10.0648 10.5648 11.3333 9.00004 11.3333C7.43525 11.3333 6.16672 10.0648 6.16672 8.5C6.16672 6.9352 7.43525 5.66668 9.00004 5.66668Z" fill="white"/>
</g>
<defs>
<clipPath id="clip0_566_1865">
<rect width="17" height="17" fill="white" transform="translate(0.5)"/>
</clipPath>
</defs>
</svg>
