<svg width="18" height="17" viewBox="0 0 18 17" fill="none" xmlns="http://www.w3.org/2000/svg">
<g clip-path="url(#clip0_637_958)">
<path d="M10.8329 8.29317C10.8698 8.31338 10.9006 8.34336 10.9217 8.37983C10.9428 8.4163 10.9535 8.45787 10.9526 8.5C10.9547 8.53594 10.9481 8.57186 10.9333 8.60468C10.9185 8.6375 10.8959 8.66623 10.8676 8.68842L7.06242 10.5924C7.02618 10.6124 6.98535 10.6227 6.94395 10.6222C6.90255 10.6217 6.86199 10.6104 6.82627 10.5894C6.79054 10.5685 6.76088 10.5386 6.74019 10.5028C6.7195 10.4669 6.70849 10.4263 6.70825 10.3849V6.61512C6.70745 6.5731 6.7181 6.53164 6.73907 6.4952C6.76003 6.45877 6.79051 6.42872 6.82725 6.40829C6.86107 6.38879 6.89942 6.37853 6.93846 6.37854C6.99558 6.38022 7.05126 6.39683 7.09996 6.42671L10.8329 8.29317ZM17.3333 3.54167V13.4583C17.3321 14.3973 16.9586 15.2975 16.2947 15.9614C15.6307 16.6254 14.7305 16.9989 13.7916 17H3.87492C2.93596 16.9989 2.03577 16.6254 1.37182 15.9614C0.707877 15.2975 0.334377 14.3973 0.333252 13.4583L0.333252 3.54167C0.334377 2.6027 0.707877 1.70252 1.37182 1.03857C2.03577 0.374625 2.93596 0.00112473 3.87492 0L13.7916 0C14.7305 0.00112473 15.6307 0.374625 16.2947 1.03857C16.9586 1.70252 17.3321 2.6027 17.3333 3.54167ZM12.3693 8.5C12.3695 8.20155 12.2889 7.90861 12.136 7.65231C11.9831 7.39601 11.7636 7.18592 11.5008 7.04437L7.76225 5.17792C7.51044 5.03344 7.22506 4.95773 6.93475 4.95838C6.64443 4.95904 6.3594 5.03602 6.10823 5.18163C5.85707 5.32723 5.64862 5.53632 5.50379 5.78793C5.35896 6.03954 5.28285 6.32481 5.28308 6.61512V10.3849C5.28138 10.6751 5.35683 10.9606 5.5017 11.2122C5.64657 11.4637 5.85566 11.6722 6.10759 11.8164C6.36259 11.9653 6.65238 12.0442 6.94767 12.0452C7.22084 12.0464 7.48954 11.9759 7.72683 11.8405L11.5348 9.93721C11.7894 9.79383 12.0011 9.58496 12.1478 9.33225C12.2945 9.07955 12.371 8.7922 12.3693 8.5Z" fill="white"/>
</g>
<defs>
<clipPath id="clip0_637_958">
<rect width="17" height="17" fill="white" transform="translate(0.333252)"/>
</clipPath>
</defs>
</svg>
