<svg width="20" height="20" viewBox="0 0 20 20" fill="none" xmlns="http://www.w3.org/2000/svg">
<g clip-path="url(#clip0_290_5594)">
<path d="M20 13.3332V17.4998C20 18.1629 19.7366 18.7988 19.2678 19.2676C18.7989 19.7365 18.163 19.9998 17.5 19.9998H13.3333C12.1642 19.9986 11.016 19.69 10.0039 19.105C8.99172 18.5199 8.15121 17.679 7.56667 16.6665C8.19489 16.662 8.82098 16.5928 9.435 16.4599C9.90262 17.0446 10.4958 17.5165 11.1707 17.8408C11.8455 18.1651 12.5846 18.3334 13.3333 18.3332H17.5C17.721 18.3332 17.933 18.2454 18.0893 18.0891C18.2455 17.9328 18.3333 17.7209 18.3333 17.4998V13.3332C18.3331 12.5842 18.1643 11.8449 17.8395 11.17C17.5146 10.4952 17.042 9.90214 16.4567 9.43485C16.5907 8.82094 16.6611 8.19485 16.6667 7.56651C17.6791 8.15106 18.5201 8.99157 19.1051 10.0037C19.6902 11.0159 19.9988 12.1641 20 13.3332ZM14.9808 8.04235C15.0588 6.96871 14.9047 5.89088 14.529 4.88209C14.1534 3.87331 13.565 2.9572 12.8038 2.19603C12.0426 1.43486 11.1265 0.846457 10.1178 0.470811C9.10896 0.0951644 8.03113 -0.058925 6.9575 0.0190131C5.05493 0.23629 3.29744 1.14166 2.01598 2.56463C0.734522 3.9876 0.0175226 5.82999 0 7.74485L0 11.9448C0 14.0548 1.25583 14.9998 2.5 14.9998H7.25C9.16567 14.9834 11.0092 14.2668 12.4332 12.9853C13.8571 11.7038 14.7633 9.9457 14.9808 8.04235ZM11.625 3.37568C12.2166 3.9686 12.674 4.68168 12.9661 5.46667C13.2582 6.25166 13.3784 7.09024 13.3183 7.92568C13.1405 9.41208 12.4254 10.7822 11.3078 11.7781C10.1901 12.7741 8.74699 13.3271 7.25 13.3332H2.5C1.72667 13.3332 1.66667 12.2707 1.66667 11.9448V7.74485C1.67361 6.24849 2.22721 4.80627 3.22326 3.68958C4.21932 2.57289 5.58916 1.85874 7.075 1.68151C7.21333 1.67151 7.35167 1.66651 7.49 1.66651C8.25772 1.6658 9.01807 1.81638 9.72757 2.10964C10.4371 2.40291 11.0818 2.83312 11.625 3.37568Z" fill="#252121"/>
</g>
<defs>
<clipPath id="clip0_290_5594">
<rect width="20" height="20" fill="white"/>
</clipPath>
</defs>
</svg>
