<svg width="20" height="20" viewBox="0 0 20 20" fill="none" xmlns="http://www.w3.org/2000/svg">
<g clip-path="url(#clip0_290_5605)">
<path d="M15.8333 3.33333H15.41L13.59 0.973333C13.3554 0.671505 13.0553 0.427014 12.7122 0.258378C12.3692 0.0897429 11.9923 0.00138587 11.61 0L8.39 0C8.00775 0.00138587 7.63082 0.0897429 7.28778 0.258378C6.94473 0.427014 6.64456 0.671505 6.41 0.973333L4.59 3.33333H4.16667C3.062 3.33466 2.00296 3.77407 1.22185 4.55518C0.440735 5.3363 0.00132321 6.39534 0 7.5L0 15.8333C0.00132321 16.938 0.440735 17.997 1.22185 18.7782C2.00296 19.5593 3.062 19.9987 4.16667 20H15.8333C16.938 19.9987 17.997 19.5593 18.7782 18.7782C19.5593 17.997 19.9987 16.938 20 15.8333V7.5C19.9987 6.39534 19.5593 5.3363 18.7782 4.55518C17.997 3.77407 16.938 3.33466 15.8333 3.33333ZM7.73 1.99167C7.80806 1.89088 7.90808 1.80922 8.02244 1.7529C8.13681 1.69658 8.26252 1.66709 8.39 1.66667H11.61C11.7375 1.66721 11.8631 1.69676 11.9775 1.75307C12.0918 1.80938 12.1919 1.89097 12.27 1.99167L13.305 3.33333H6.695L7.73 1.99167ZM18.3333 15.8333C18.3333 16.4964 18.0699 17.1323 17.6011 17.6011C17.1323 18.0699 16.4964 18.3333 15.8333 18.3333H4.16667C3.50363 18.3333 2.86774 18.0699 2.3989 17.6011C1.93006 17.1323 1.66667 16.4964 1.66667 15.8333V7.5C1.66667 6.83696 1.93006 6.20107 2.3989 5.73223C2.86774 5.26339 3.50363 5 4.16667 5H15.8333C16.4964 5 17.1323 5.26339 17.6011 5.73223C18.0699 6.20107 18.3333 6.83696 18.3333 7.5V15.8333Z" fill="#252121"/>
<path d="M10 6.66656C9.0111 6.66656 8.0444 6.95981 7.22215 7.50922C6.39991 8.05862 5.75904 8.83952 5.3806 9.75315C5.00217 10.6668 4.90315 11.6721 5.09608 12.642C5.289 13.6119 5.76521 14.5028 6.46447 15.2021C7.16373 15.9014 8.05465 16.3776 9.02455 16.5705C9.99446 16.7634 10.9998 16.6644 11.9134 16.286C12.8271 15.9075 13.6079 15.2667 14.1574 14.4444C14.7068 13.6222 15 12.6555 15 11.6666C14.9987 10.3409 14.4715 9.06989 13.5341 8.13249C12.5967 7.1951 11.3257 6.66789 10 6.66656ZM10 14.9999C9.34073 14.9999 8.69627 14.8044 8.1481 14.4381C7.59994 14.0719 7.1727 13.5513 6.9204 12.9422C6.66811 12.3331 6.6021 11.6629 6.73072 11.0163C6.85934 10.3697 7.1768 9.77572 7.64298 9.30954C8.10915 8.84337 8.7031 8.5259 9.3497 8.39728C9.9963 8.26866 10.6665 8.33467 11.2756 8.58697C11.8847 8.83926 12.4053 9.2665 12.7716 9.81466C13.1378 10.3628 13.3333 11.0073 13.3333 11.6666C13.3333 12.5506 12.9821 13.3985 12.357 14.0236C11.7319 14.6487 10.8841 14.9999 10 14.9999Z" fill="#252121"/>
</g>
<defs>
<clipPath id="clip0_290_5605">
<rect width="20" height="20" fill="white"/>
</clipPath>
</defs>
</svg>
