<svg width="20" height="19" viewBox="0 0 20 19" fill="none" xmlns="http://www.w3.org/2000/svg">
<path d="M14.5832 0.597046C13.6448 0.611642 12.7269 0.87359 11.9222 1.35644C11.1174 1.83929 10.4544 2.52594 9.99988 3.34705C9.54542 2.52594 8.88233 1.83929 8.07758 1.35644C7.27283 0.87359 6.35493 0.611642 5.41655 0.597046C3.92067 0.662038 2.51131 1.31642 1.49637 2.41724C0.481433 3.51805 -0.0565749 4.97582 -0.000116138 6.47205C-0.000116138 10.2612 3.98822 14.3995 7.33322 17.2054C8.08007 17.833 9.02435 18.1771 9.99988 18.1771C10.9754 18.1771 11.9197 17.833 12.6665 17.2054C16.0115 14.3995 19.9999 10.2612 19.9999 6.47205C20.0563 4.97582 19.5183 3.51805 18.5034 2.41724C17.4885 1.31642 16.0791 0.662038 14.5832 0.597046Z" fill="white"/>
</svg>
