<svg width="17" height="17" viewBox="0 0 17 17" fill="none" xmlns="http://www.w3.org/2000/svg">
<path d="M12.3943 1C11.597 1.01245 10.8171 1.23596 10.1333 1.64795C9.44954 2.05993 8.88614 2.64581 8.5 3.34641C8.11386 2.64581 7.55046 2.05993 6.8667 1.64795C6.18294 1.23596 5.40303 1.01245 4.60574 1C3.33475 1.05545 2.13728 1.6138 1.27493 2.55306C0.41258 3.49233 -0.0445429 4.73615 0.00342773 6.01279C0.00342773 9.24587 3.39214 12.7769 6.23425 15.1709C6.86881 15.7064 7.67113 16 8.5 16C9.32887 16 10.1312 15.7064 10.7658 15.1709C13.6079 12.7769 16.9966 9.24587 16.9966 6.01279C17.0445 4.73615 16.5874 3.49233 15.7251 2.55306C14.8627 1.6138 13.6652 1.05545 12.3943 1Z" fill="#9A9EA0"/>
</svg>
