<svg width="16" height="17" viewBox="0 0 16 17" fill="none" xmlns="http://www.w3.org/2000/svg">
<path d="M12 1.5H4C2.34315 1.5 1 2.84315 1 4.5V12.5C1 14.1569 2.34315 15.5 4 15.5H12C13.6569 15.5 15 14.1569 15 12.5V4.5C15 2.84315 13.6569 1.5 12 1.5Z" fill="url(#paint0_radial_256_4459)"/>
<path d="M12 1.5H4C2.34315 1.5 1 2.84315 1 4.5V12.5C1 14.1569 2.34315 15.5 4 15.5H12C13.6569 15.5 15 14.1569 15 12.5V4.5C15 2.84315 13.6569 1.5 12 1.5Z" fill="url(#paint1_radial_256_4459)"/>
<path d="M12 1.5H4C2.34315 1.5 1 2.84315 1 4.5V12.5C1 14.1569 2.34315 15.5 4 15.5H12C13.6569 15.5 15 14.1569 15 12.5V4.5C15 2.84315 13.6569 1.5 12 1.5Z" fill="url(#paint2_radial_256_4459)"/>
<path d="M11.5 5.75C11.5 6.1642 11.1642 6.5 10.75 6.5C10.3358 6.5 10 6.1642 10 5.75C10 5.33579 10.3358 5 10.75 5C11.1642 5 11.5 5.33579 11.5 5.75Z" fill="white"/>
<path fill-rule="evenodd" clip-rule="evenodd" d="M8 11C9.3807 11 10.5 9.8807 10.5 8.5C10.5 7.1193 9.3807 6 8 6C6.6193 6 5.5 7.1193 5.5 8.5C5.5 9.8807 6.6193 11 8 11ZM8 10C8.82845 10 9.5 9.32845 9.5 8.5C9.5 7.67155 8.82845 7 8 7C7.17155 7 6.5 7.67155 6.5 8.5C6.5 9.32845 7.17155 10 8 10Z" fill="white"/>
<path fill-rule="evenodd" clip-rule="evenodd" d="M3 8.3C3 6.61985 3 5.77975 3.32698 5.13803C3.6146 4.57354 4.07354 4.1146 4.63803 3.82698C5.27975 3.5 6.11985 3.5 7.8 3.5H8.2C9.88015 3.5 10.7203 3.5 11.3619 3.82698C11.9264 4.1146 12.3854 4.57354 12.673 5.13803C13 5.77975 13 6.61985 13 8.3V8.7C13 10.3801 13 11.2203 12.673 11.8619C12.3854 12.4264 11.9264 12.8854 11.3619 13.173C10.7203 13.5 9.88015 13.5 8.2 13.5H7.8C6.11985 13.5 5.27975 13.5 4.63803 13.173C4.07354 12.8854 3.6146 12.4264 3.32698 11.8619C3 11.2203 3 10.3801 3 8.7V8.3ZM7.8 4.5H8.2C9.0566 4.5 9.63885 4.50078 10.089 4.53755C10.5274 4.57337 10.7516 4.6383 10.908 4.71799C11.2843 4.90974 11.5903 5.2157 11.782 5.592C11.8617 5.7484 11.9267 5.9726 11.9625 6.41105C11.9992 6.86115 12 7.4434 12 8.3V8.7C12 9.5566 11.9992 10.1389 11.9625 10.589C11.9267 11.0274 11.8617 11.2516 11.782 11.408C11.5903 11.7843 11.2843 12.0903 10.908 12.282C10.7516 12.3617 10.5274 12.4267 10.089 12.4625C9.63885 12.4992 9.0566 12.5 8.2 12.5H7.8C6.9434 12.5 6.36115 12.4992 5.91105 12.4625C5.4726 12.4267 5.2484 12.3617 5.092 12.282C4.7157 12.0903 4.40974 11.7843 4.21799 11.408C4.1383 11.2516 4.07337 11.0274 4.03755 10.589C4.00078 10.1389 4 9.5566 4 8.7V8.3C4 7.4434 4.00078 6.86115 4.03755 6.41105C4.07337 5.9726 4.1383 5.7484 4.21799 5.592C4.40974 5.2157 4.7157 4.90974 5.092 4.71799C5.2484 4.6383 5.4726 4.57337 5.91105 4.53755C6.36115 4.50078 6.9434 4.5 7.8 4.5Z" fill="white"/>
<defs>
<radialGradient id="paint0_radial_256_4459" cx="0" cy="0" r="1" gradientUnits="userSpaceOnUse" gradientTransform="translate(6 12) rotate(-55.3758) scale(12.7598)">
<stop stop-color="#B13589"/>
<stop offset="0.79309" stop-color="#C62F94"/>
<stop offset="1" stop-color="#8A3AC8"/>
</radialGradient>
<radialGradient id="paint1_radial_256_4459" cx="0" cy="0" r="1" gradientUnits="userSpaceOnUse" gradientTransform="translate(5.5 16) rotate(-65.1363) scale(11.2971)">
<stop stop-color="#E0E8B7"/>
<stop offset="0.444662" stop-color="#FB8A2E"/>
<stop offset="0.71474" stop-color="#E2425C"/>
<stop offset="1" stop-color="#E2425C" stop-opacity="0"/>
</radialGradient>
<radialGradient id="paint2_radial_256_4459" cx="0" cy="0" r="1" gradientUnits="userSpaceOnUse" gradientTransform="translate(0.25 2) rotate(-8.1301) scale(19.4455 4.15918)">
<stop offset="0.156701" stop-color="#406ADC"/>
<stop offset="0.467799" stop-color="#6A45BE"/>
<stop offset="1" stop-color="#6A45BE" stop-opacity="0"/>
</radialGradient>
</defs>
</svg>
