<svg width="40" height="20" viewBox="0 0 40 20" fill="none" xmlns="http://www.w3.org/2000/svg">
<path d="M0 10C0 7.34784 1.05357 4.8043 2.92893 2.92893C4.8043 1.05357 7.34784 0 10 0L30 0C32.6522 0 35.1957 1.05357 37.0711 2.92893C38.9464 4.8043 40 7.34784 40 10C40 12.6522 38.9464 15.1957 37.0711 17.0711C35.1957 18.9464 32.6522 20 30 20H10C7.34784 20 4.8043 18.9464 2.92893 17.0711C1.05357 15.1957 0 12.6522 0 10H0Z" fill="#E0E0E0"/>
<path d="M11 18C15.4183 18 19 14.4183 19 10C19 5.58172 15.4183 2 11 2C6.58172 2 3 5.58172 3 10C3 14.4183 6.58172 18 11 18Z" fill="white"/>
</svg>
