<svg width="40" height="20" viewBox="0 0 40 20" fill="none" xmlns="http://www.w3.org/2000/svg">
<g clip-path="url(#clip0_495_5973)">
<path d="M0 10C0 7.34784 1.05357 4.8043 2.92893 2.92893C4.8043 1.05357 7.34784 0 10 0L30 0C32.6522 0 35.1957 1.05357 37.0711 2.92893C38.9464 4.8043 40 7.34784 40 10C40 12.6522 38.9464 15.1957 37.0711 17.0711C35.1957 18.9464 32.6522 20 30 20H10C7.34784 20 4.8043 18.9464 2.92893 17.0711C1.05357 15.1957 0 12.6522 0 10H0Z" fill="#1D1D1F"/>
<path d="M0 10C0 7.34784 1.05357 4.8043 2.92893 2.92893C4.8043 1.05357 7.34784 0 10 0L30 0C32.6522 0 35.1957 1.05357 37.0711 2.92893C38.9464 4.8043 40 7.34784 40 10C40 12.6522 38.9464 15.1957 37.0711 17.0711C35.1957 18.9464 32.6522 20 30 20H10C7.34784 20 4.8043 18.9464 2.92893 17.0711C1.05357 15.1957 0 12.6522 0 10H0Z" fill="url(#paint0_radial_495_5973)"/>
<path d="M30 18C34.4183 18 38 14.4183 38 10C38 5.58172 34.4183 2 30 2C25.5817 2 22 5.58172 22 10C22 14.4183 25.5817 18 30 18Z" fill="white"/>
</g>
<defs>
<radialGradient id="paint0_radial_495_5973" cx="0" cy="0" r="1" gradientUnits="userSpaceOnUse" gradientTransform="translate(30.3448 2.95567) rotate(121.255) scale(19.938 31.8249)">
<stop stop-color="#FFD34E"/>
<stop offset="1" stop-color="#FF8051"/>
</radialGradient>
<clipPath id="clip0_495_5973">
<rect width="40" height="20" fill="white"/>
</clipPath>
</defs>
</svg>
