<svg width="43" height="27" viewBox="0 0 43 27" fill="none" xmlns="http://www.w3.org/2000/svg">
<rect width="43" height="27" rx="8" fill="#1D1D1F"/>
<rect width="43" height="27" rx="8" fill="url(#paint0_radial_256_4443)"/>
<path d="M28.7378 15.3015L28.9104 13.823C29.0025 13.0341 29.0633 12.5132 29.0156 12.185L29.0323 12.1851C29.8122 12.1851 30.4445 11.6026 30.4445 10.8841C30.4445 10.1656 29.8122 9.58308 29.0323 9.58308C28.2523 9.58308 27.62 10.1656 27.62 10.8841C27.62 11.2091 27.7494 11.5062 27.9632 11.7342C27.6561 11.9088 27.2549 12.277 26.6507 12.8314C26.1853 13.2584 25.9526 13.472 25.693 13.5051C25.5491 13.5234 25.4026 13.5046 25.2698 13.4507C25.0301 13.3534 24.8702 13.0895 24.5505 12.5615L22.8658 9.77858C22.6685 9.45287 22.5035 9.18027 22.3547 8.9609C22.9651 8.674 23.3831 8.08933 23.3831 7.41473C23.3831 6.4567 22.5401 5.68005 21.5001 5.68005C20.4601 5.68005 19.6171 6.4567 19.6171 7.41473C19.6171 8.08933 20.0351 8.674 20.6455 8.9609C20.4967 9.18028 20.3317 9.45284 20.1344 9.77858L18.4496 12.5615C18.13 13.0895 17.9702 13.3534 17.7305 13.4507C17.5976 13.5046 17.4511 13.5234 17.3072 13.5051C17.0476 13.472 16.8149 13.2584 16.3495 12.8314C15.7454 12.277 15.344 11.9088 15.0371 11.7342C15.2509 11.5062 15.3802 11.2091 15.3802 10.8841C15.3802 10.1656 14.7479 9.58308 13.9679 9.58308C13.188 9.58308 12.5557 10.1656 12.5557 10.8841C12.5557 11.6026 13.188 12.1851 13.9679 12.1851L13.9846 12.185C13.9369 12.5132 13.9977 13.0341 14.0898 13.823L14.2625 15.3015C14.3583 16.1222 14.438 16.9031 14.5356 17.606H28.4646C28.5623 16.9031 28.6419 16.1222 28.7378 15.3015Z" fill="white"/>
<path d="M20.4575 21.5458H22.5426C25.2605 21.5458 26.6193 21.5458 27.526 20.7343C27.9217 20.38 28.1723 19.7415 28.3531 18.9104H14.647C14.8278 19.7415 15.0784 20.38 15.4741 20.7343C16.3808 21.5458 17.7397 21.5458 20.4575 21.5458Z" fill="white"/>
<defs>
<radialGradient id="paint0_radial_256_4443" cx="0" cy="0" r="1" gradientUnits="userSpaceOnUse" gradientTransform="translate(32.6207 3.99015) rotate(115.795) scale(25.5563 36.0325)">
<stop stop-color="#FFD34E"/>
<stop offset="1" stop-color="#FF8051"/>
</radialGradient>
</defs>
</svg>
