<svg width="48" height="48" viewBox="0 0 48 48" fill="none" xmlns="http://www.w3.org/2000/svg">
<rect width="48" height="48" rx="24" fill="#F8F8F8"/>
<path d="M30 13.5H18C15.5147 13.5 13.5 15.5147 13.5 18V30C13.5 32.4853 15.5147 34.5 18 34.5H30C32.4853 34.5 34.5 32.4853 34.5 30V18C34.5 15.5147 32.4853 13.5 30 13.5Z" fill="url(#paint0_radial_290_5414)"/>
<path d="M30 13.5H18C15.5147 13.5 13.5 15.5147 13.5 18V30C13.5 32.4853 15.5147 34.5 18 34.5H30C32.4853 34.5 34.5 32.4853 34.5 30V18C34.5 15.5147 32.4853 13.5 30 13.5Z" fill="url(#paint1_radial_290_5414)"/>
<path d="M30 13.5H18C15.5147 13.5 13.5 15.5147 13.5 18V30C13.5 32.4853 15.5147 34.5 18 34.5H30C32.4853 34.5 34.5 32.4853 34.5 30V18C34.5 15.5147 32.4853 13.5 30 13.5Z" fill="url(#paint2_radial_290_5414)"/>
<path d="M29.25 19.875C29.25 20.4963 28.7463 21 28.125 21C27.5037 21 27 20.4963 27 19.875C27 19.2537 27.5037 18.75 28.125 18.75C28.7463 18.75 29.25 19.2537 29.25 19.875Z" fill="white"/>
<path fill-rule="evenodd" clip-rule="evenodd" d="M24 27.75C26.0711 27.75 27.75 26.0711 27.75 24C27.75 21.929 26.0711 20.25 24 20.25C21.929 20.25 20.25 21.929 20.25 24C20.25 26.0711 21.929 27.75 24 27.75ZM24 26.25C25.2427 26.25 26.25 25.2427 26.25 24C26.25 22.7573 25.2427 21.75 24 21.75C22.7573 21.75 21.75 22.7573 21.75 24C21.75 25.2427 22.7573 26.25 24 26.25Z" fill="white"/>
<path fill-rule="evenodd" clip-rule="evenodd" d="M16.5 23.7C16.5 21.1798 16.5 19.9196 16.9905 18.957C17.4219 18.1103 18.1103 17.4219 18.957 16.9905C19.9196 16.5 21.1798 16.5 23.7 16.5H24.3C26.8202 16.5 28.0804 16.5 29.0429 16.9905C29.8897 17.4219 30.5781 18.1103 31.0095 18.957C31.5 19.9196 31.5 21.1798 31.5 23.7V24.3C31.5 26.8202 31.5 28.0804 31.0095 29.0429C30.5781 29.8897 29.8897 30.5781 29.0429 31.0095C28.0804 31.5 26.8202 31.5 24.3 31.5H23.7C21.1798 31.5 19.9196 31.5 18.957 31.0095C18.1103 30.5781 17.4219 29.8897 16.9905 29.0429C16.5 28.0804 16.5 26.8202 16.5 24.3V23.7ZM23.7 18H24.3C25.5849 18 26.4583 18.0012 27.1334 18.0563C27.7911 18.1101 28.1274 18.2074 28.362 18.327C28.9264 18.6146 29.3854 19.0735 29.673 19.638C29.7925 19.8726 29.89 20.2089 29.9437 20.8666C29.9988 21.5417 30 22.4151 30 23.7V24.3C30 25.5849 29.9988 26.4583 29.9437 27.1334C29.89 27.7911 29.7925 28.1274 29.673 28.362C29.3854 28.9264 28.9264 29.3854 28.362 29.673C28.1274 29.7925 27.7911 29.89 27.1334 29.9437C26.4583 29.9988 25.5849 30 24.3 30H23.7C22.4151 30 21.5417 29.9988 20.8666 29.9437C20.2089 29.89 19.8726 29.7925 19.638 29.673C19.0735 29.3854 18.6146 28.9264 18.327 28.362C18.2074 28.1274 18.1101 27.7911 18.0563 27.1334C18.0012 26.4583 18 25.5849 18 24.3V23.7C18 22.4151 18.0012 21.5417 18.0563 20.8666C18.1101 20.2089 18.2074 19.8726 18.327 19.638C18.6146 19.0735 19.0735 18.6146 19.638 18.327C19.8726 18.2074 20.2089 18.1101 20.8666 18.0563C21.5417 18.0012 22.4151 18 23.7 18Z" fill="white"/>
<defs>
<radialGradient id="paint0_radial_290_5414" cx="0" cy="0" r="1" gradientUnits="userSpaceOnUse" gradientTransform="translate(21 29.25) rotate(-55.3758) scale(19.1397)">
<stop stop-color="#B13589"/>
<stop offset="0.79309" stop-color="#C62F94"/>
<stop offset="1" stop-color="#8A3AC8"/>
</radialGradient>
<radialGradient id="paint1_radial_290_5414" cx="0" cy="0" r="1" gradientUnits="userSpaceOnUse" gradientTransform="translate(20.25 35.25) rotate(-65.1363) scale(16.9457)">
<stop stop-color="#E0E8B7"/>
<stop offset="0.444662" stop-color="#FB8A2E"/>
<stop offset="0.71474" stop-color="#E2425C"/>
<stop offset="1" stop-color="#E2425C" stop-opacity="0"/>
</radialGradient>
<radialGradient id="paint2_radial_290_5414" cx="0" cy="0" r="1" gradientUnits="userSpaceOnUse" gradientTransform="translate(12.375 14.25) rotate(-8.1301) scale(29.1682 6.23877)">
<stop offset="0.156701" stop-color="#406ADC"/>
<stop offset="0.467799" stop-color="#6A45BE"/>
<stop offset="1" stop-color="#6A45BE" stop-opacity="0"/>
</radialGradient>
</defs>
</svg>
