<svg width="48" height="48" viewBox="0 0 48 48" fill="none" xmlns="http://www.w3.org/2000/svg">
<rect width="48" height="48" rx="24" fill="#F8F8F8"/>
<path d="M18.3382 26.8444C18.4554 25.874 18.8534 25.3307 19.6034 24.7738C20.6766 24.0194 22.0171 24.4461 22.0171 24.4461V21.9148C22.343 21.9064 22.6691 21.9257 22.9913 21.9724V25.2301C22.9913 25.2301 21.6512 24.8034 20.5781 25.5581C19.8285 26.1147 19.4297 26.6584 19.3129 27.6289C19.3092 28.1558 19.4081 28.8446 19.8635 29.4402C19.7509 29.3824 19.6361 29.3167 19.5192 29.2429C18.5161 28.5692 18.3333 27.5587 18.3382 26.8444ZM28.5264 17.2342C27.7882 16.4253 27.509 15.6085 27.4081 15.0348H28.3367C28.3367 15.0348 28.1516 16.5392 29.501 18.0186L29.5198 18.0385C29.156 17.8097 28.8225 17.5397 28.5264 17.2342ZM33 19.5277V22.7197C33 22.7197 31.815 22.6734 30.938 22.4503C29.7134 22.1382 28.9264 21.6596 28.9264 21.6596C28.9264 21.6596 28.3827 21.3184 28.3388 21.2946V27.8863C28.3388 28.2533 28.2383 29.1699 27.9318 29.9344C27.5318 30.9345 26.9144 31.5909 26.8009 31.7251C26.8009 31.7251 26.0501 32.6124 24.7254 33.21C23.5314 33.749 22.4831 33.7354 22.1697 33.749C22.1697 33.749 20.3576 33.8208 18.7269 32.761C18.3742 32.5274 18.0451 32.2629 17.7437 31.9708L17.7518 31.9766C19.3829 33.0364 21.1946 32.9646 21.1946 32.9646C21.5084 32.9509 22.5567 32.9646 23.7503 32.4256C25.0738 31.828 25.8258 30.9407 25.8258 30.9407C25.9382 30.8065 26.5583 30.1501 26.9567 29.1496C27.2624 28.3855 27.3637 27.4685 27.3637 27.1015V20.5106C27.4076 20.5348 27.9509 20.876 27.9509 20.876C27.9509 20.876 28.7384 21.355 29.963 21.6667C30.8403 21.8898 32.025 21.9362 32.025 21.9362V19.4349C32.4303 19.5257 32.7758 19.5503 33 19.5277Z" fill="#EE1D52"/>
<path d="M32.0257 19.4349V21.9354C32.0257 21.9354 30.841 21.889 29.9636 21.6659C28.7391 21.3538 27.9516 20.8753 27.9516 20.8753C27.9516 20.8753 27.4083 20.534 27.3643 20.5098V27.1023C27.3643 27.4693 27.2638 28.3863 26.9574 29.1504C26.5573 30.1509 25.94 30.8073 25.8265 30.9415C25.8265 30.9415 25.0753 31.8288 23.751 32.4264C22.5574 32.9654 21.5091 32.9518 21.1953 32.9654C21.1953 32.9654 19.3835 33.0372 17.7525 31.9774L17.7443 31.9716C17.5721 31.8048 17.41 31.6288 17.2588 31.4443C16.7383 30.8096 16.4193 30.0592 16.3391 29.845V29.8423C16.2101 29.4703 15.9391 28.5766 15.9761 27.7111C16.0416 26.1841 16.5788 25.2469 16.7208 25.012C17.097 24.3718 17.5862 23.7988 18.1667 23.3189C18.679 22.9047 19.2597 22.5751 19.8849 22.3438C20.5608 22.0721 21.2845 21.9265 22.0174 21.9148V24.4461C22.0174 24.4461 20.6768 24.021 19.6041 24.7738C18.8541 25.3307 18.4561 25.874 18.3389 26.8444C18.334 27.5587 18.5167 28.5692 19.519 29.2432C19.636 29.3173 19.7507 29.3831 19.8634 29.4406C20.0384 29.6682 20.2516 29.8666 20.4941 30.0276C21.4732 30.6474 22.2937 30.6907 23.3428 30.2881C24.0424 30.019 24.5689 29.4125 24.8131 28.7404C24.9666 28.3208 24.9646 27.8983 24.9646 27.4615V15.0348H27.4063C27.5072 15.6085 27.7864 16.4253 28.5246 17.2342C28.8207 17.5397 29.1543 17.8097 29.518 18.0385C29.6254 18.1497 30.1748 18.6992 30.8801 19.0366C31.2447 19.211 31.6291 19.3446 32.0257 19.4349Z" fill="black"/>
<path d="M15.3669 29.0676V29.0696L15.4275 29.2338C15.4206 29.2147 15.3981 29.1566 15.3669 29.0676Z" fill="#69C9D0"/>
<path d="M19.8846 22.3437C19.2594 22.5751 18.6787 22.9047 18.1664 23.3188C17.5857 23.7999 17.0966 24.374 16.7209 25.0155C16.5789 25.2496 16.0417 26.1876 15.9762 27.7146C15.9392 28.5801 16.2102 29.4737 16.3392 29.8458V29.8485C16.4206 30.0607 16.7384 30.8111 17.2589 31.4477C17.4101 31.6322 17.5722 31.8083 17.7444 31.975C17.1927 31.6093 16.7006 31.1671 16.2843 30.6629C15.7682 30.0338 15.45 29.2912 15.367 29.0719C15.3669 29.0704 15.3669 29.0688 15.367 29.0673V29.0645C15.2376 28.6928 14.9657 27.7988 15.0036 26.9322C15.0691 25.4052 15.6063 24.4679 15.7483 24.2331C16.1239 23.5915 16.613 23.0173 17.1938 22.5364C17.706 22.1221 18.2867 21.7925 18.912 21.5613C19.302 21.4062 19.7084 21.2918 20.1239 21.22C20.7502 21.1153 21.3899 21.1061 22.0191 21.1931V21.9147C21.2856 21.9262 20.5611 22.0718 19.8846 22.3437Z" fill="#69C9D0"/>
<path d="M27.4078 15.0348H24.9661V27.4619C24.9661 27.8987 24.9661 28.32 24.8147 28.7408C24.5681 29.4125 24.0435 30.019 23.3443 30.2881C22.2949 30.6922 21.4744 30.6474 20.4957 30.0276C20.2527 29.8673 20.039 29.6695 19.8633 29.4425C20.6971 29.8688 21.4435 29.8614 22.3681 29.5057C23.0668 29.2366 23.5922 28.63 23.838 27.958C23.9918 27.5383 23.9898 27.1159 23.9898 26.6794V14.25H27.3614C27.3614 14.25 27.3236 14.5589 27.4078 15.0348ZM32.0251 18.7433V19.4348C31.6294 19.3445 31.2457 19.2109 30.8816 19.0366C30.1764 18.6992 29.6269 18.1496 29.5195 18.0385C29.6442 18.1169 29.7736 18.1883 29.9069 18.2522C30.7644 18.6625 31.6088 18.785 32.0251 18.7433Z" fill="#69C9D0"/>
</svg>
