<svg width="48" height="48" viewBox="0 0 48 48" fill="none" xmlns="http://www.w3.org/2000/svg">
<rect width="48" height="48" rx="24" fill="#F8F8F8"/>
<path d="M24 34.5C29.799 34.5 34.5 29.799 34.5 24C34.5 18.201 29.799 13.5 24 13.5C18.201 13.5 13.5 18.201 13.5 24C13.5 29.799 18.201 34.5 24 34.5Z" fill="url(#paint0_linear_256_7667)"/>
<path d="M29.2399 19.6566C29.3334 19.0525 28.759 18.5757 28.2219 18.8115L17.5236 23.5086C17.1384 23.6777 17.1666 24.2612 17.5661 24.3884L19.7723 25.091C20.1934 25.2251 20.6494 25.1557 21.0171 24.9017L25.9912 21.4652C26.1412 21.3616 26.3047 21.5749 26.1766 21.7069L22.5961 25.3984C22.2487 25.7566 22.3177 26.3634 22.7355 26.6254L26.7442 29.1392C27.1939 29.4212 27.7723 29.138 27.8563 28.5946L29.2399 19.6566Z" fill="white"/>
<defs>
<linearGradient id="paint0_linear_256_7667" x1="24" y1="13.5" x2="24" y2="34.5" gradientUnits="userSpaceOnUse">
<stop stop-color="#37BBFE"/>
<stop offset="1" stop-color="#007DBB"/>
</linearGradient>
</defs>
</svg>
