<svg width="18" height="20" viewBox="0 0 18 20" fill="none" xmlns="http://www.w3.org/2000/svg">
<path d="M8.64583 14.074C8.36914 14.074 8.13737 13.9813 7.95052 13.7959C7.76302 13.6111 7.66927 13.3819 7.66927 13.1083V3.28312L6.79036 4.15218C6.61133 4.32921 6.3877 4.41773 6.11947 4.41773C5.85059 4.41773 5.61849 4.32117 5.42318 4.12804C5.24414 3.93492 5.15462 3.70542 5.15462 3.43955C5.15462 3.17433 5.24414 2.9532 5.42318 2.77617L7.96224 0.265547C8.04362 0.185078 8.14551 0.120703 8.2679 0.0724218C8.38965 0.0241406 8.51563 0 8.64583 0C8.77604 0 8.90234 0.0241406 9.02474 0.0724218C9.14648 0.120703 9.24805 0.185078 9.32943 0.265547L11.8685 2.77617C12.0638 2.96929 12.1615 3.20265 12.1615 3.47625C12.1615 3.74984 12.0638 3.97515 11.8685 4.15218C11.6732 4.32921 11.4414 4.41773 11.1732 4.41773C10.9043 4.41773 10.6803 4.32921 10.5013 4.15218L9.6224 3.28312V13.1083C9.6224 13.3819 9.52897 13.6111 9.34212 13.7959C9.15462 13.9813 8.92253 14.074 8.64583 14.074ZM1.95313 20C1.41602 20 0.95638 19.8111 0.574219 19.4332C0.191406 19.0547 0 18.5998 0 18.0688V7.44689C0 6.9158 0.191406 6.57522 0.574219 6.19669C0.95638 5.81881 1.41602 5.62987 1.95313 5.62987H3.90625C4.18294 5.62987 4.41504 5.72225 4.60254 5.90701C4.78939 6.09241 4.88281 6.3219 4.88281 6.5955C4.88281 6.86909 4.78939 6.98403 4.60254 7.16879C4.41504 7.35419 4.18294 7.44689 3.90625 7.44689L1.5 7.44688V18.5H15.5V7.44688H13.2975C13.0208 7.44688 12.7891 7.35418 12.6022 7.16878C12.4147 6.98403 12.321 6.75485 12.321 6.48126C12.321 6.20767 12.4147 6.09241 12.6022 5.90701C12.7891 5.72225 13.0208 5.62987 13.2975 5.62987H15.2507C15.7878 5.62987 16.2477 5.81881 16.6305 6.1967C17.0127 6.57522 17.2038 6.91579 17.2038 7.44688V18.0687C17.2038 18.5998 17.0127 19.0546 16.6305 19.4332C16.2477 19.8111 15.7878 20 15.2507 20L1.95313 20Z" fill="#252121"/>
</svg>
