<svg width="16" height="17" viewBox="0 0 16 17" fill="none" xmlns="http://www.w3.org/2000/svg">
<path d="M8 15.5C11.866 15.5 15 12.366 15 8.5C15 4.63401 11.866 1.5 8 1.5C4.13401 1.5 1 4.63401 1 8.5C1 12.366 4.13401 15.5 8 15.5Z" fill="url(#paint0_linear_256_4477)"/>
<path d="M11.4933 5.6044C11.5556 5.20166 11.1727 4.88377 10.8146 5.041L3.68241 8.1724C3.42561 8.28515 3.4444 8.67415 3.71073 8.75895L5.18155 9.22735C5.4623 9.31675 5.76625 9.2705 6.0114 9.10115L9.3275 6.81015C9.4275 6.74105 9.5365 6.88325 9.45105 6.9713L7.06405 9.4323C6.8325 9.67105 6.87845 10.0756 7.157 10.2502L9.8295 11.9262C10.1292 12.1141 10.5148 11.9253 10.5709 11.5631L11.4933 5.6044Z" fill="white"/>
<defs>
<linearGradient id="paint0_linear_256_4477" x1="8" y1="1.5" x2="8" y2="15.5" gradientUnits="userSpaceOnUse">
<stop stop-color="#37BBFE"/>
<stop offset="1" stop-color="#007DBB"/>
</linearGradient>
</defs>
</svg>
