<svg width="17" height="17" viewBox="0 0 17 17" fill="none" xmlns="http://www.w3.org/2000/svg">
<g clip-path="url(#clip0_495_5861)">
<path d="M13.4945 0H3.5778C2.63884 0.00112473 1.73865 0.374625 1.07471 1.03857C0.410758 1.70252 0.0372575 2.6027 0.0361328 3.54167V13.4583C0.0372575 14.3973 0.410758 15.2975 1.07471 15.9614C1.73865 16.6254 2.63884 16.9989 3.5778 17H13.4945C14.4334 16.9989 15.3336 16.6254 15.9976 15.9614C16.6615 15.2975 17.035 14.3973 17.0361 13.4583V3.54167C17.035 2.6027 16.6615 1.70252 15.9976 1.03857C15.3336 0.374625 14.4334 0.00112473 13.4945 0V0ZM14.2028 7.79167H15.6195V9.20833H14.2028V7.79167ZM14.2028 6.375V4.95833H15.6195V6.375H14.2028ZM2.86947 9.20833H1.4528V7.79167H2.86947V9.20833ZM4.25001 9.20833V7.79167H12.75V9.20833H4.25001ZM2.86947 6.375H1.4528V4.95833H2.86947V6.375ZM1.4528 10.625H2.86947V12.0417H1.4528V10.625ZM14.2028 10.625H15.6195V12.0417H14.2028V10.625ZM15.6195 3.54167H14.2028V1.547C14.6157 1.69298 14.9734 1.96296 15.227 2.32C15.4806 2.67705 15.6177 3.10373 15.6195 3.54167ZM2.86947 1.547V3.54167H1.4528C1.45461 3.10373 1.59169 2.67705 1.84528 2.32C2.09886 1.96296 2.45657 1.69298 2.86947 1.547ZM1.4528 13.4583H2.86947V15.453C2.45657 15.307 2.09886 15.037 1.84528 14.68C1.59169 14.3229 1.45461 13.8963 1.4528 13.4583ZM14.2028 15.453V13.4583H15.6195C15.6177 13.8963 15.4806 14.3229 15.227 14.68C14.9734 15.037 14.6157 15.307 14.2028 15.453Z" fill="#9A9EA0"/>
</g>
<defs>
<clipPath id="clip0_495_5861">
<rect width="17" height="17" fill="white"/>
</clipPath>
</defs>
</svg>
