<svg width="14" height="15" viewBox="0 0 14 15" fill="none" xmlns="http://www.w3.org/2000/svg">
<g clip-path="url(#clip0_496_9254)">
<path d="M11.9 0.5H2.1C0.940202 0.5 0 1.4402 0 2.6V12.4C0 13.5598 0.940202 14.5 2.1 14.5H11.9C13.0598 14.5 14 13.5598 14 12.4V2.6C14 1.4402 13.0598 0.5 11.9 0.5Z" fill="white"/>
<path d="M6.48038 6.37891C5.83401 6.2897 5.17582 6.40026 4.59408 6.69577C4.01234 6.99127 3.53486 7.45759 3.22569 8.03219C2.91652 8.60679 2.79043 9.26218 2.86434 9.91047C2.93825 10.5588 3.20863 11.169 3.6392 11.6592C4.06978 12.1495 4.63996 12.4964 5.27329 12.6533C5.90662 12.8103 6.57281 12.7699 7.18251 12.5375C7.7922 12.3051 8.31626 11.8918 8.68439 11.3531C9.05252 10.8143 9.24712 10.1759 9.2421 9.52344V6.02344C9.94371 6.52534 10.7857 6.79325 11.6483 6.78906V5.06641C11.0102 5.06641 10.3981 4.81289 9.94687 4.36163C9.49561 3.91037 9.2421 3.29833 9.2421 2.66016H7.4921V9.55078C7.49357 9.86328 7.39586 10.1682 7.21302 10.4216C7.03019 10.6751 6.77167 10.8639 6.47466 10.9611C6.17765 11.0583 5.85746 11.0587 5.56019 10.9623C5.26293 10.866 5.0039 10.6778 4.82039 10.4248C4.63688 10.1719 4.53835 9.86723 4.53899 9.55473C4.53963 9.24223 4.63939 8.93799 4.82393 8.68579C5.00847 8.4336 5.26827 8.24646 5.56593 8.1513C5.86359 8.05614 6.18376 8.05787 6.48038 8.15625V6.37891Z" fill="#FF0055"/>
<path d="M5.98819 5.96875C5.34182 5.87954 4.68363 5.9901 4.10189 6.28561C3.52015 6.58112 3.04268 7.04744 2.7335 7.62203C2.42433 8.19663 2.29825 8.85202 2.37216 9.50032C2.44607 10.1486 2.71644 10.7588 3.14702 11.2491C3.57759 11.7393 4.14778 12.0862 4.78111 12.2432C5.41443 12.4002 6.08062 12.3597 6.69032 12.1273C7.30002 11.8949 7.82407 11.4816 8.1922 10.9429C8.56033 10.4042 8.75493 9.76576 8.74991 9.11328V5.61328C9.45152 6.11518 10.2935 6.38309 11.1562 6.37891V4.65625C10.518 4.65625 9.90594 4.40273 9.45468 3.95148C9.00342 3.50022 8.74991 2.88818 8.74991 2.25H6.99991V9.14062C7.00138 9.45312 6.90367 9.75803 6.72084 10.0115C6.538 10.2649 6.27948 10.4538 5.98247 10.551C5.68546 10.6481 5.36528 10.6486 5.06801 10.5522C4.77074 10.4558 4.51171 10.2676 4.3282 10.0147C4.14469 9.76172 4.04617 9.45707 4.0468 9.14457C4.04744 8.83207 4.14721 8.52783 4.33175 8.27564C4.51629 8.02344 4.77608 7.8363 5.07374 7.74114C5.3714 7.64598 5.69158 7.64772 5.98819 7.74609V5.96875Z" fill="#00EEEE"/>
</g>
<defs>
<clipPath id="clip0_496_9254">
<rect width="14" height="14" fill="white" transform="translate(0 0.5)"/>
</clipPath>
</defs>
</svg>
