<svg width="16" height="17" viewBox="0 0 16 17" fill="none" xmlns="http://www.w3.org/2000/svg">
<g clip-path="url(#clip0_496_9260)">
<path d="M15.7 4.80005C15.6 4.00005 14.9 3.30005 14.05 3.25005C9.15 2.90005 6.75 2.90005 1.9 3.25005C1.1 3.30005 0.4 4.00005 0.3 4.80005C-0.1 7.75005 -0.1 9.25005 0.3 12.2C0.4 13 1.15 13.7 1.95 13.75C4.35 13.9 6.2 14 8 14C9.8 14 11.65 13.9 14.1 13.75C14.9 13.7 15.6 13 15.75 12.2C16.1 9.25005 16.1 7.75005 15.7 4.80005Z" fill="#FF0000"/>
<path d="M10.55 9.34998L7.55 11.35C7.4 11.45 7.2 11.5 7 11.5C6.85 11.5 6.65 11.45 6.55 11.4C6.2 11.2 6 10.9 6 10.5V6.49998C6 6.09998 6.2 5.79998 6.55 5.59998C6.9 5.39998 7.25 5.44998 7.6 5.64998L10.6 7.64998C10.9 7.84998 11.05 8.14998 11.05 8.49998C11.05 8.84998 10.85 9.14998 10.55 9.34998Z" fill="white"/>
</g>
<defs>
<clipPath id="clip0_496_9260">
<rect width="16" height="16" fill="white" transform="translate(0 0.5)"/>
</clipPath>
</defs>
</svg>
